{
  "accessors": [
    {
      "bufferView": 2,
      "componentType": 5126,
      "count": 4149,
      "max": [
        3.9794235229492188,
        9.722814559936523,
        4.4981160163879395
      ],
      "min": [
        -8.149764060974121,
        -1.0,
        -2.30165958404541
      ],
      "type": "VEC3"
    },
    {
      "bufferView": 2,
      "byteOffset": 49788,
      "componentType": 5126,
      "count": 4149,
      "max": [
        1.0,
        1.0,
        0.9999902248382568
      ],
      "min": [
        -1.0,
        -1.0,
        -0.9999883770942688
      ],
      "type": "VEC3"
    },
    {
      "bufferView": 1,
      "componentType": 5126,
      "count": 4149,
      "max": [
        0.9860875606536865,
        1.0
      ],
      "min": [
        0.013912439346313477,
        0.010317325592041016
      ],
      "type": "VEC2"
    },
    {
      "bufferView": 0,
      "componentType": 5125,
      "count": 21522,
      "type": "SCALAR"
    },
    {
      "bufferView": 2,
      "byteOffset": 99576,
      "componentType": 5126,
      "count": 4083,
      "max": [
        3.4713704586029053,
        9.672786712646484,
        7.843249320983887
      ],
      "min": [
        -7.576818466186523,
        3.363198757171631,
        0.05505827069282532
      ],
      "type": "VEC3"
    },
    {
      "bufferView": 2,
      "byteOffset": 148572,
      "componentType": 5126,
      "count": 4083,
      "max": [
        1.0,
        0.999960720539093,
        0.9999185800552368
      ],
      "min": [
        -1.0,
        -0.9996482133865356,
        -1.0
      ],
      "type": "VEC3"
    },
    {
      "bufferView": 1,
      "byteOffset": 33192,
      "componentType": 5126,
      "count": 4083,
      "max": [
        0.8664588928222656,
        1.0
      ],
      "min": [
        0.13354110717773438,
        0.20225226879119873
      ],
      "type": "VEC2"
    },
    {
      "bufferView": 0,
      "byteOffset": 86088,
      "componentType": 5125,
      "count": 20652,
      "type": "SCALAR"
    }
  ],
  "asset": {
    "extras": {
      "author": "JSLGames (https://sketchfab.com/JSLGames)",
      "license": "CC-BY-4.0 (http://creativecommons.org/licenses/by/4.0/)",
      "source": "https://sketchfab.com/3d-models/winter-tree-ec2a099dbb4e496e9fb85ee4ee68eff0",
      "title": "Winter Tree"
    },
    "generator": "Sketchfab-15.53.0",
    "version": "2.0"
  },
  "bufferViews": [
    {
      "buffer": 0,
      "byteLength": 168696,
      "name": "floatBufferViews",
      "target": 34963
    },
    {
      "buffer": 0,
      "byteLength": 65856,
      "byteOffset": 168696,
      "byteStride": 8,
      "name": "floatBufferViews",
      "target": 34962
    },
    {
      "buffer": 0,
      "byteLength": 197568,
      "byteOffset": 234552,
      "byteStride": 12,
      "name": "floatBufferViews",
      "target": 34962
    }
  ],
  "buffers": [
    {
      "byteLength": 432120,
      "uri": "scene.bin"
    }
  ],
  "materials": [
    {
      "doubleSided": true,
      "name": "lambert2",
      "pbrMetallicRoughness": {
        "baseColorFactor": [
          0.067,
          0.0440172,
          0.024455,
          1.0
        ],
        "metallicFactor": 0.0,
        "roughnessFactor": 0.6
      }
    }
  ],
  "meshes": [
    {
      "name": "pCylinder1_lambert2_0",
      "primitives": [
        {
          "attributes": {
            "NORMAL": 1,
            "POSITION": 0,
            "TEXCOORD_0": 2
          },
          "indices": 3,
          "material": 0,
          "mode": 4
        }
      ]
    },
    {
      "name": "pasted__pCylinder1_lambert2_0",
      "primitives": [
        {
          "attributes": {
            "NORMAL": 5,
            "POSITION": 4,
            "TEXCOORD_0": 6
          },
          "indices": 7,
          "material": 0,
          "mode": 4
        }
      ]
    }
  ],
  "nodes": [
    {
      "children": [
        1
      ],
      "matrix": [
        1.0,
        0.0,
        0.0,
        0.0,
        0.0,
        2.220446049250313e-16,
        -1.0,
        0.0,
        0.0,
        1.0,
        2.220446049250313e-16,
        0.0,
        0.0,
        0.0,
        0.0,
        1.0
      ],
      "name": "Sketchfab_model"
    },
    {
      "children": [
        2
      ],
      "matrix": [
        0.009999999776482582,
        0.0,
        0.0,
        0.0,
        0.0,
        0.0,
        0.009999999776482582,
        0.0,
        0.0,
        -0.009999999776482582,
        0.0,
        0.0,
        0.0,
        0.0,
        0.0,
        1.0
      ],
      "name": "38e35705503c415898e2690217e26282.fbx"
    },
    {
      "children": [
        3
      ],
      "name": "RootNode"
    },
    {
      "children": [
        4,
        6
      ],
      "name": "group4"
    },
    {
      "children": [
        5
      ],
      "matrix": [
        0.30377715826034546,
        0.0,
        0.0,
        0.0,
        0.0,
        1.0,
        0.0,
        0.0,
        0.0,
        0.0,
        0.3051862120628357,
        0.0,
        0.0,
        0.0,
        0.0,
        1.0
      ],
      "name": "pCylinder1"
    },
    {
      "mesh": 0,
      "name": "pCylinder1_lambert2_0"
    },
    {
      "children": [
        7
      ],
      "matrix": [
        0.028964107931882085,
        0.0,
        0.30239319161059375,
        0.0,
        0.0,
        1.0,
        0.0,
        0.0,
        -0.3037958259591609,
        0.0,
        0.02909845636891032,
        0.0,
        0.7670416831970215,
        0.0,
        -0.1653137505054474,
        1.0
      ],
      "name": "pasted__pCylinder1"
    },
    {
      "mesh": 1,
      "name": "pasted__pCylinder1_lambert2_0"
    }
  ],
  "scene": 0,
  "scenes": [
    {
      "name": "Sketchfab_Scene",
      "nodes": [
        0
      ]
    }
  ]
}
